# xmcd
#
# Track frame offsets: 
#        150
#        14020
#        26720
#        44109
#        55948
#        70451
#        84085
#        103950
#        118318
#        129256
#        149567
#        162442
#
# Disc length: 2400 seconds
#
# Revision: 0
# Processed by: cddbd v1.5.2PL0 Copyright (c) Steve Scherf et al.
# Submitted via: ExactAudioCopy v0.95b3
#
DISCID=b6095e0c
DTITLE=BlueRidge - Gettin' Ready
DYEAR=2006
DGENRE=Bluegrass
TTITLE0=Don't You Want To Go There
TTITLE1=Lead Me Not
TTITLE2=Won't They Be Surprised
TTITLE3=He Will Set Your Fields On Fire
TTITLE4=Rock Foundation
TTITLE5=I'm Goin' Up When He Starts Down
TTITLE6=Gospel Medley
TTITLE7=The Bridge
TTITLE8=I'm Getting Ready To Leave This World
TTITLE9=Light In The Forest
TTITLE10=Do You Call That Religion
TTITLE11=This Journey I'm On
EXTD=
EXTT0=
EXTT1=
EXTT2=
EXTT3=
EXTT4=
EXTT5=
EXTT6=
EXTT7=
EXTT8=
EXTT9=
EXTT10=
EXTT11=
PLAYORDER=
